<svg xmlns:dc="http://purl.org/dc/elements/1.1/" xmlns:cc="http://creativecommons.org/ns#" xmlns:rdf="http://www.w3.org/1999/02/22-rdf-syntax-ns#" xmlns:svg="http://www.w3.org/2000/svg" xmlns="http://www.w3.org/2000/svg" viewBox="0 0 20 20" fill="none" width="60" height="60"><metadata><rdf:RDF><cc:Work><dc:format>image/svg+xml</dc:format><dc:type rdf:resource="http://purl.org/dc/dcmitype/StillImage"/><dc:title>Pixel Art</dc:title><dc:creator><cc:Agent><dc:title>Plastic Jam</dc:title></cc:Agent></dc:creator><cc:license rdf:resource="https://github.com/dicebear/dicebear/blob/main/packages/%40dicebear/pixel-art/LICENSE"/></cc:Work></rdf:RDF></metadata><mask id="avatarsRadiusMask"><rect width="20" height="20" rx="0" ry="0" x="0" y="0" fill="#fff"/></mask><g mask="url(#avatarsRadiusMask)"><path d="M6 4V3h8v1h1v1h1v3h1v3h-1v2h-1v1h-1v1h-2v1h4v1h1v3H3v-3h1v-1h4v-1H6v-1H5v-1H4v-2H3V8h1V5h1V4h1Z" fill="rgba(245, 207, 160, 1)"/><path d="M6 3v1H5v1H4v3H3v3h1v2h1v1h1v1h8v-1h1v-1h1v-2h1V8h-1V5h-1V4h-1V3H6Z" fill="#fff" fill-opacity=".1"/><g/><g><g fill-rule="evenodd" clip-rule="evenodd"><path d="M5 9V7h3v2H5Zm7-2h3v2h-3V7Z" fill="#fff"/><path d="M7 8v1h1V8H7Zm7 0h1v1h-1V8Z" fill="#000"/></g></g><g><g fill-rule="evenodd" clip-rule="evenodd"><path d="M6 5h1v1h1v1H5V6h1V5Zm7 0h1v1h1v1h-3V6h1V5Z" fill="rgba(96, 48, 21, 1)"/><path d="M6 5h1v1h1v1H5V6h1V5Zm7 0h1v1h1v1h-3V6h1V5Z" fill="#000" fill-opacity=".1"/></g></g><g><path d="M8 12v2h4v-2H8Z" fill="#fff"/></g><g><path d="M3 8h1V5h12v3h1V4h-1V3h-1V2H5v1H4v1H3v4Z" fill="rgba(96, 48, 21, 1)"/></g><g/><g/><g/><g><path fill-rule="evenodd" clip-rule="evenodd" d="M5 16h1v2h1v1h1v1H5v-4Zm9 0h1v4h-3v-1h1v-1h1v-2Z" fill="rgba(3, 57, 108, 1)"/></g></g></svg>